<?xml version="1.0" encoding="UTF-8"?> <!-- Generator: Adobe Illustrator 16.0.0, SVG Export Plug-In . SVG Version: 6.00 Build 0) --> <svg xmlns="http://www.w3.org/2000/svg" xmlns:xlink="http://www.w3.org/1999/xlink" id="Layer_1" x="0px" y="0px" width="432px" height="432px" viewBox="0 0 432 432" xml:space="preserve"> <g> <defs> <circle id="SVGID_1_" cx="216" cy="216" r="216"></circle> </defs> <clipPath id="SVGID_2_"> <use xlink:href="#SVGID_1_" overflow="visible"></use> </clipPath> <rect x="0" clip-path="url(#SVGID_2_)" fill="#00615B" width="432" height="432"></rect> <polygon clip-path="url(#SVGID_2_)" fill="#FFFFFF" points="175.023,86.537 407.583,449.126 342.841,490.589 327.815,467.159 348.778,453.759 345.792,449.142 324.847,462.536 317.933,451.755 338.88,438.341 335.925,433.731 314.978,447.124 307.798,435.964 328.747,422.548 325.79,417.938 304.843,431.331 298.159,420.931 330.532,400.188 327.599,395.589 295.173,416.317 288.021,405.14 308.95,391.718 306.005,387.099 285.067,400.507 277.397,388.565 298.333,375.157 295.354,370.515 274.418,383.923 267.252,372.759 288.188,359.349 285.243,354.731 264.297,368.124 257.371,357.354 289.767,336.616 286.784,332.001 254.402,352.728 247.238,341.536 268.174,328.13 265.217,323.522 244.258,336.921 237.346,326.118 258.293,312.726 255.324,308.101 234.377,321.493 227.213,310.325 248.158,296.933 245.201,292.298 224.242,305.7 217.581,295.31 249.979,274.573 246.998,269.956 214.604,290.669 207.438,279.503 228.395,266.103 225.412,261.485 204.465,274.901 196.811,262.927 217.749,249.517 214.788,244.909 193.827,258.312 186.687,247.151 207.622,233.743 204.641,229.103 183.706,242.509 176.778,231.739 209.177,211.003 206.2,206.362 173.814,227.089 166.647,215.923 187.608,202.522 184.64,197.896 163.704,211.306 156.769,200.494 177.705,187.087 174.731,182.486 153.784,195.879 146.629,184.729 167.581,171.312 164.61,166.686 143.668,180.078 136.99,169.696 169.39,148.958 166.405,144.343 134.024,165.047 121.387,145.342 119.945,143.101 110.578,128.486 "></polygon> </g> </svg> 