<?xml version="1.0" encoding="utf-8"?>
<!-- Svg Vector Icons : http://www.onlinewebfonts.com/icon -->
<!DOCTYPE svg PUBLIC "-//W3C//DTD SVG 1.1//EN" "http://www.w3.org/Graphics/SVG/1.1/DTD/svg11.dtd">
<svg version="1.1" xmlns="http://www.w3.org/2000/svg" xmlns:xlink="http://www.w3.org/1999/xlink" x="0px" y="0px" viewBox="0 0 1000 1000" enable-background="new 0 0 1000 1000" xml:space="preserve">
<metadata> Svg Vector Icons : http://www.onlinewebfonts.com/icon </metadata>
<g><g transform="translate(0.000000,511.000000) scale(0.100000,-0.100000)"><path d="M5651.7,4986.2c-94.6-43.4-178.9-132.9-214.6-227.4c-20.5-48.6-28.1-920-28.1-2767.7V-702.6H5000h-408.9l-5.1,1914.2c-7.7,1888.6-7.7,1916.7-61.3,1985.7c-28.1,38.3-84.3,94.5-122.7,122.7c-69,53.7-92,53.7-1855.4,53.7s-1786.4,0-1855.4-53.7c-38.3-28.1-94.6-84.3-122.7-122.7c-53.7-69-53.7-79.2-61.3-3616.2l-5.1-3544.6l-112.4-30.7c-360.3-94.6-393.6-618.5-48.6-761.6c122.7-53.7,9195.1-53.7,9317.8,0c345,143.1,311.8,667-48.5,761.6l-112.5,30.7l-5.1,4362.4c-7.7,4362.4-7.7,4365-61.3,4434c-28.1,38.3-84.4,94.6-122.7,122.7c-69,53.7-97.1,53.7-1824.7,58.8C6060.6,5019.4,5713,5014.3,5651.7,4986.2z M6776.2,3935.8c63.9-61.3,63.9-66.4,63.9-549.5c0-483,0-488.1-63.9-549.5c-38.3-40.9-92-63.9-140.6-63.9s-102.2,23-140.6,63.9c-63.9,61.3-63.9,66.5-63.9,549.5c0,483,0,488.1,63.9,549.5c38.3,40.9,92,63.9,140.6,63.9S6737.8,3976.7,6776.2,3935.8z M7594,3935.8c63.9-61.3,63.9-66.4,63.9-549.5c0-483,0-488.1-63.9-549.5c-38.3-40.9-92-63.9-140.6-63.9c-48.6,0-102.2,23-140.6,63.9c-63.9,61.3-63.9,66.5-63.9,549.5c0,483,0,488.1,63.9,549.5c38.3,40.9,92,63.9,140.6,63.9C7502,3999.7,7555.6,3976.7,7594,3935.8z M8411.7,3935.8c63.9-61.3,63.9-66.4,63.9-549.5c0-483,0-488.1-63.9-549.5c-38.3-40.9-92-63.9-140.6-63.9s-102.2,23-140.6,63.9c-63.9,61.3-63.9,66.5-63.9,549.5c0,483,0,488.1,63.9,549.5c38.3,40.9,92,63.9,140.6,63.9S8373.4,3976.7,8411.7,3935.8z M3505,2300.2c40.9-38.3,63.9-92,63.9-140.6s-23-102.2-63.9-140.6l-61.3-63.9h-897h-897l-61.3,63.9c-40.9,38.3-63.9,92-63.9,140.6s23,102.2,63.9,140.6l61.3,63.9h897h897L3505,2300.2z M6776.2,2300.2c63.9-61.3,63.9-66.4,63.9-549.5c0-483,0-488.1-63.9-549.5c-38.3-40.9-92-63.9-140.6-63.9s-102.2,23-140.6,63.9c-63.9,61.3-63.9,66.5-63.9,549.5c0,483,0,488.1,63.9,549.5c38.3,40.9,92,63.9,140.6,63.9S6737.8,2341.1,6776.2,2300.2z M7594,2300.2c63.9-61.3,63.9-66.4,63.9-549.5c0-483,0-488.1-63.9-549.5c-38.3-40.9-92-63.9-140.6-63.9c-48.6,0-102.2,23-140.6,63.9c-63.9,61.3-63.9,66.5-63.9,549.5c0,483,0,488.1,63.9,549.5c38.3,40.9,92,63.9,140.6,63.9C7502,2364.1,7555.6,2341.1,7594,2300.2z M8411.7,2300.2c63.9-61.3,63.9-66.4,63.9-549.5c0-483,0-488.1-63.9-549.5c-38.3-40.9-92-63.9-140.6-63.9s-102.2,23-140.6,63.9c-63.9,61.3-63.9,66.5-63.9,549.5c0,483,0,488.1,63.9,549.5c38.3,40.9,92,63.9,140.6,63.9S8373.4,2341.1,8411.7,2300.2z M3505,1482.5c40.9-38.3,63.9-92,63.9-140.6c0-48.6-23-102.2-63.9-140.6l-61.3-63.9h-897h-897l-61.3,63.9c-40.9,38.3-63.9,92-63.9,140.6c0,48.5,23,102.2,63.9,140.6l61.3,63.9h897h897L3505,1482.5z M3505,664.7c40.9-38.3,63.9-92,63.9-140.6s-23-102.2-63.9-140.6l-61.3-63.9h-897h-897l-61.3,63.9c-40.9,38.3-63.9,92-63.9,140.6s23,102.2,63.9,140.6l61.3,63.9h897h897L3505,664.7z M6776.2,664.7c63.9-61.3,63.9-66.4,63.9-549.5c0-483,0-488.1-63.9-549.5c-38.3-40.9-92-63.9-140.6-63.9s-102.2,23-140.6,63.9c-63.9,61.3-63.9,66.4-63.9,549.5c0,483,0,488.1,63.9,549.5c38.3,40.9,92,63.9,140.6,63.9S6737.8,705.5,6776.2,664.7z M7594,664.7c63.9-61.3,63.9-66.4,63.9-549.5c0-483,0-488.1-63.9-549.5c-38.3-40.9-92-63.9-140.6-63.9c-48.6,0-102.2,23-140.6,63.9c-63.9,61.3-63.9,66.4-63.9,549.5c0,483,0,488.1,63.9,549.5c38.3,40.9,92,63.9,140.6,63.9C7502,728.5,7555.6,705.5,7594,664.7z M8411.7,664.7c63.9-61.3,63.9-66.4,63.9-549.5c0-483,0-488.1-63.9-549.5c-38.3-40.9-92-63.9-140.6-63.9s-102.2,23-140.6,63.9c-63.9,61.3-63.9,66.4-63.9,549.5c0,483,0,488.1,63.9,549.5c38.3,40.9,92,63.9,140.6,63.9S8373.4,705.5,8411.7,664.7z M3505-153.2c40.9-38.3,63.9-92,63.9-140.5c0-48.6-23-102.2-63.9-140.6l-61.3-63.9h-897h-897l-61.3,63.9c-40.9,38.3-63.9,92-63.9,140.6c0,48.5,23,102.2,63.9,140.5l61.3,63.9h897h897L3505-153.2z M2687.2-970.9c40.9-38.3,63.9-92,63.9-140.6c0-48.6-23-102.2-63.9-140.6c-61.3-63.9-66.5-63.9-549.5-63.9c-483,0-488.1,0-549.5,63.9c-40.9,38.3-63.9,92-63.9,140.6c0,48.5,23,102.2,63.9,140.6c61.3,63.9,66.4,63.9,549.5,63.9C2620.7-907.1,2625.8-907.1,2687.2-970.9z M7594-970.9c63.9-61.3,63.9-66.5,63.9-549.5c0-483,0-488.1-63.9-549.5c-38.3-40.9-92-63.9-140.6-63.9c-48.6,0-102.2,23-140.6,63.9c-63.9,61.3-63.9,66.4-63.9,549.5c0,483,0,488.1,63.9,549.5c38.3,40.9,92,63.9,140.6,63.9C7502-907.1,7555.6-930.1,7594-970.9z M8411.7-970.9c63.9-61.3,63.9-66.5,63.9-549.5c0-483,0-488.1-63.9-549.5c-38.3-40.9-92-63.9-140.6-63.9s-102.2,23-140.6,63.9c-63.9,61.3-63.9,66.4-63.9,549.5c0,483,0,488.1,63.9,549.5c38.3,40.9,92,63.9,140.6,63.9S8373.4-930.1,8411.7-970.9z M2687.2-1788.7c40.9-38.3,63.9-92,63.9-140.6c0-48.6-23-102.2-63.9-140.6c-61.3-63.9-66.5-63.9-549.5-63.9c-483,0-488.1,0-549.5,63.9c-40.9,38.3-63.9,92-63.9,140.6c0,48.5,23,102.2,63.9,140.6c61.3,63.9,66.4,63.9,549.5,63.9C2620.7-1724.9,2625.8-1724.9,2687.2-1788.7z M5958.4-1788.7c40.9-38.3,63.9-92,63.9-140.6c0-48.6-23-102.2-63.9-140.6l-61.3-63.9h-897h-897l-61.3,63.9c-40.9,38.3-63.9,92-63.9,140.6c0,48.5,23,102.2,63.9,140.6l61.3,63.9h897h897L5958.4-1788.7z M2687.2-2606.5c40.9-38.3,63.9-92,63.9-140.6c0-48.6-23-102.2-63.9-140.6c-61.3-63.9-66.5-63.9-549.5-63.9c-483,0-488.1,0-549.5,63.9c-40.9,38.3-63.9,92-63.9,140.6c0,48.5,23,102.2,63.9,140.6c61.3,63.9,66.4,63.9,549.5,63.9C2620.7-2542.6,2625.8-2542.6,2687.2-2606.5z M5958.4-2606.5c40.9-38.3,63.9-92,63.9-140.6c0-48.6-23-102.2-63.9-140.6l-61.3-63.9h-897h-897l-61.3,63.9c-40.9,38.3-63.9,92-63.9,140.6c0,48.5,23,102.2,63.9,140.6l61.3,63.9h897h897L5958.4-2606.5z M7594-2606.5c63.9-61.3,63.9-66.5,63.9-549.5c0-483,0-488.1-63.9-549.5c-38.3-40.9-92-63.9-140.6-63.9c-48.6,0-102.2,23-140.6,63.9c-63.9,61.3-63.9,66.4-63.9,549.5c0,483,0,488.1,63.9,549.5c38.3,40.9,92,63.9,140.6,63.9C7502-2542.6,7555.6-2565.7,7594-2606.5z M8411.7-2606.5c63.9-61.3,63.9-66.5,63.9-549.5c0-483,0-488.1-63.9-549.5c-38.3-40.9-92-63.9-140.6-63.9s-102.2,23-140.6,63.9c-63.9,61.3-63.9,66.4-63.9,549.5c0,483,0,488.1,63.9,549.5c38.3,40.9,92,63.9,140.6,63.9S8373.4-2565.7,8411.7-2606.5z M2687.2-3424.3c40.9-38.3,63.9-92,63.9-140.6c0-48.6-23-102.2-63.9-140.6c-61.3-63.9-66.5-63.9-549.5-63.9c-483,0-488.1,0-549.5,63.9c-40.9,38.3-63.9,92-63.9,140.6c0,48.6,23,102.2,63.9,140.6c61.3,63.9,66.4,63.9,549.5,63.9C2620.7-3360.4,2625.8-3360.4,2687.2-3424.3z M5958.4-3424.3c40.9-38.3,63.9-92,63.9-140.6c0-48.6-23-102.2-63.9-140.6l-61.3-63.9h-897h-897l-61.3,63.9c-40.9,38.3-63.9,92-63.9,140.6c0,48.6,23,102.2,63.9,140.6l61.3,63.9h897h897L5958.4-3424.3z"/></g></g>
</svg>