<?xml version="1.0" encoding="iso-8859-1"?>
<!-- Generator: Adobe Illustrator 19.0.0, SVG Export Plug-In . SVG Version: 6.00 Build 0)  -->
<svg xmlns="http://www.w3.org/2000/svg" xmlns:xlink="http://www.w3.org/1999/xlink" version="1.1" id="Layer_1" x="0px" y="0px" viewBox="0 0 417.625 417.625" style="enable-background:new 0 0 417.625 417.625;" xml:space="preserve" width="512" height="512">
<g>
	<path style="fill:#858EA4;" d="M148.736,256.354c-3.648,0-7.298-1.376-10.106-4.135c-5.68-5.582-5.759-14.711-0.177-20.391   l120.152-122.259c5.583-5.679,14.71-5.759,20.391-0.177c5.68,5.582,5.759,14.711,0.177,20.391L159.021,252.042   C156.198,254.914,152.468,256.354,148.736,256.354z"/>
	<path style="fill:#707789;" d="M148.736,256.354c-3.648,0-7.298-1.376-10.106-4.135c-5.68-5.582-5.759-14.711-0.177-20.391   l70.36-71.594v41.143l-49.792,50.665C156.198,254.914,152.468,256.354,148.736,256.354z"/>
	<path style="fill:#858EA4;" d="M268.889,256.354c-3.732,0-7.462-1.44-10.285-4.312L138.452,129.783   c-5.582-5.68-5.503-14.809,0.177-20.391c5.679-5.581,14.809-5.502,20.391,0.177l120.152,122.259   c5.582,5.68,5.503,14.809-0.177,20.391C276.188,254.978,272.537,256.354,268.889,256.354z"/>
	<path style="fill:#707789;" d="M208.812,201.377l-70.36-71.594c-5.582-5.68-5.503-14.809,0.177-20.391   c5.679-5.581,14.809-5.502,20.391,0.177l49.792,50.665V201.377z"/>
	<path style="fill:#858EA4;" d="M148.736,382.741c-3.648,0-7.298-1.376-10.106-4.135c-5.68-5.582-5.759-14.711-0.177-20.391   l120.152-122.26c5.583-5.679,14.71-5.76,20.391-0.177c5.68,5.582,5.759,14.711,0.177,20.391l-120.152,122.26   C156.198,381.301,152.468,382.741,148.736,382.741z"/>
	<path style="fill:#707789;" d="M148.736,382.741c-3.648,0-7.298-1.376-10.106-4.135c-5.68-5.582-5.759-14.711-0.177-20.391   l70.36-71.594l0.011,41.154l-49.802,50.654C156.198,381.301,152.468,382.741,148.736,382.741z"/>
	<path style="fill:#858EA4;" d="M268.889,382.741c-3.732,0-7.462-1.44-10.285-4.312l-120.152-122.26   c-5.582-5.68-5.503-14.809,0.177-20.391c5.679-5.582,14.809-5.502,20.391,0.177l120.152,122.26   c5.582,5.68,5.503,14.809-0.177,20.391C276.188,381.365,272.537,382.741,268.889,382.741z"/>
	<path style="fill:#707789;" d="M208.823,327.774l-70.371-71.605c-5.582-5.68-5.503-14.809,0.177-20.391   c5.679-5.582,14.809-5.502,20.391,0.177l49.792,50.665L208.823,327.774z"/>
	<path style="fill:#858EA4;" d="M300.362,417.625h-1.097c-23.989,0-43.506-19.517-43.506-43.506V69.746L208.264,33.81   l-47.495,35.936v304.373c0,23.99-19.518,43.506-43.507,43.506c-8.284,0-15-6.716-15-15s6.716-15,15-15   c7.447,0,13.507-6.059,13.507-13.506V62.285c0-4.699,2.202-9.126,5.949-11.962l62.495-47.285c5.354-4.051,12.748-4.051,18.102,0   l62.495,47.285c3.747,2.835,5.949,7.263,5.949,11.962v311.833c0,7.447,6.059,13.506,13.506,13.506h1.097c8.284,0,15,6.716,15,15   S308.646,417.625,300.362,417.625z"/>
	<path style="fill:#707789;" d="M208.264,33.81l-47.495,35.936v304.373c0,23.99-19.518,43.506-43.507,43.506   c-8.284,0-15-6.716-15-15s6.716-15,15-15c7.447,0,13.507-6.059,13.507-13.506V62.285c0-4.699,2.202-9.126,5.949-11.962   l62.495-47.285C201.89,1.013,205.076,0,208.262,0L208.264,33.81z"/>
	<path style="fill:#387F9E;" d="M295.113,105.758H122.511c-8.284,0-15-6.716-15-15s6.716-15,15-15h172.602c8.284,0,15,6.716,15,15   S303.397,105.758,295.113,105.758z"/>
	<path style="fill:#29556E;" d="M208.259,105.758h-85.748c-8.284,0-15-6.716-15-15s6.716-15,15-15h85.748V105.758z"/>
</g>















</svg>
