<?xml version="1.0" standalone="no"?>
<!DOCTYPE svg PUBLIC "-//W3C//DTD SVG 20010904//EN"
 "http://www.w3.org/TR/2001/REC-SVG-20010904/DTD/svg10.dtd">
<svg version="1.0" xmlns="http://www.w3.org/2000/svg"
 width="1280.000000pt" height="860.000000pt" viewBox="0 0 1280.000000 860.000000" 
 preserveAspectRatio="xMidYMid meet">
<g transform="translate(0.000000,860.000000) scale(0.100000,-0.100000)"
fill="#1e2e77" stroke="none">
<path d="M3028 8309 l-3 -292 -65 -1 -65 -1 -5 -55 -5 -54 -200 -48 c-517
-124 -664 -160 -712 -174 l-53 -15 0 -3409 c0 -3024 -2 -3410 -15 -3410 -13 0
-15 131 -15 1119 l0 1118 -72 19 -71 19 1 67 0 67 -66 37 c-37 21 -103 72
-147 114 -44 42 -105 97 -136 123 l-56 47 -369 0 -369 0 -55 -36 c-30 -20
-126 -86 -212 -147 l-158 -110 0 -53 0 -52 -90 -8 -90 -7 0 -1568 c0 -1388 2
-1569 15 -1569 8 0 15 -7 15 -15 0 -13 716 -15 6386 -15 l6386 0 -6 38 c-3 20
-11 82 -17 137 -6 55 -15 105 -20 111 -5 6 -10 82 -11 170 l-3 159 -110 57
c-60 31 -111 63 -113 72 -3 14 -58 16 -515 18 l-512 3 -2 1065 c-3 1007 -4
1065 -20 1072 -10 4 -184 57 -388 119 -203 61 -376 116 -383 121 -8 8 -43 7
-110 0 -53 -6 -374 -34 -712 -62 -338 -29 -621 -54 -627 -56 -10 -3 -13 -285
-13 -1369 l0 -1365 -25 0 -25 0 0 743 0 742 -115 115 c-63 63 -115 120 -115
127 0 10 -38 13 -160 13 l-160 0 0 516 0 515 -32 13 c-18 8 -59 19 -90 26
l-57 13 -3 56 -3 55 -75 43 c-41 23 -93 62 -115 87 -22 24 -77 76 -123 115
l-83 71 -195 0 -194 0 -2 2067 -3 2067 -75 18 c-146 35 -1026 240 -1090 253
-40 9 -67 11 -70 5 -4 -6 -40 -19 -81 -29 -41 -11 -263 -69 -494 -130 -231
-60 -428 -113 -437 -116 -17 -7 -18 -99 -18 -1732 0 -1639 -1 -1725 -17 -1718
-10 4 -40 13 -67 21 -27 7 -53 17 -57 21 -4 4 -60 130 -124 278 -64 149 -129
299 -145 333 l-27 64 -37 -109 c-20 -59 -76 -215 -124 -347 l-88 -239 -108
-32 c-59 -18 -110 -36 -114 -40 -4 -4 -8 -132 -10 -285 l-3 -279 -54 -16 c-32
-9 -59 -24 -65 -35 -6 -12 -10 -197 -10 -519 0 -318 -4 -501 -10 -501 -5 0
-34 11 -65 24 l-55 25 0 2543 0 2543 -472 109 c-260 60 -492 114 -515 119 -42
10 -42 10 -45 61 l-3 51 -52 3 -53 3 0 290 0 289 -25 0 -25 0 -2 -291z"/>
</g>
</svg>
