<?xml version="1.0" encoding="utf-8"?>
<!-- Generator: Adobe Illustrator 21.0.0, SVG Export Plug-In . SVG Version: 6.00 Build 0)  -->
<svg version="1.1" id="Layer_1" xmlns="http://www.w3.org/2000/svg" xmlns:xlink="http://www.w3.org/1999/xlink" x="0px" y="0px"
	 viewBox="0 0 909 174" style="enable-background:new 0 0 909 174; fill:#fff ;stroke:#fff;" xml:space="preserve">
<g>
	<path d="M38.3,15.5L63.8,60l25.6-44.4H124L81.1,90.2l42.9,74.9H89.4l-25.6-44.6l-25.5,44.6L3.8,165l42.7-74.8L3.8,15.5H38.3z"/>
	<path d="M136.9,120.2V15.5h52.5c14.5,0,26.9,5.1,37.1,15.3c10.3,10.3,15.5,22.6,15.5,37.1c0,14.6-5.2,26.9-15.5,36.9
		c-10.3,10.2-22.7,15.3-37.1,15.3H167v44.9h-30.1V120.2z M189.5,45.3H167v45.1l22.5,0.1c12.3,0,22.5-10.3,22.5-22.5
		C212,55.7,201.7,45.3,189.5,45.3z"/>
	<path d="M285.1,15.5v119.7h60.1v29.9H255V15.5H285.1z"/>
	<path d="M472.9,36.7c14.9,14.9,22.4,32.8,22.4,53.7c0,21-7.5,38.8-22.4,53.6c-14.8,14.7-32.7,22.1-53.6,22.1
		c-21-0.1-38.8-7.4-53.6-22.1c-14.8-14.8-22.3-32.7-22.3-53.6c0-20.8,7.4-38.7,22.3-53.7c14.9-14.9,32.8-22.4,53.6-22.4
		S458,21.8,472.9,36.7z M387.1,58c-8.9,9-13.4,19.8-13.4,32.2c0,12.6,4.5,23.3,13.4,32.2c8.8,8.8,19.6,13.3,32.2,13.3
		c12.4,0,23.1-4.4,32.1-13.3c9-8.8,13.5-19.6,13.5-32.2c0-12.5-4.5-23.2-13.5-32.2c-8.9-8.9-19.6-13.4-32.1-13.4
		C406.6,44.7,395.8,49.1,387.1,58z"/>
	<path d="M508,15.5h48.8c16.7,0,30.1,6.3,39.2,15.2c9.1,9.1,14.5,17.4,14.5,34v3.9c0,10.1-3.2,19.6-9.5,28.5
		c-5.3,7.4-9.4,10.5-17.9,13.8l34.8,54.2h-36.7l-43-66.1v66.1h-30.1L508,15.5z M579.5,65.6c0-5.4-2-10.2-5.9-14.4
		c-3.9-3.8-11.3-5.9-18.6-5.9h-16.9v41.3h11.6v0.1h10C570.7,86.7,579.5,77,579.5,65.6z"/>
	<path d="M721,15.2v30h-60.1v30.2h45.1v30h-45.1v30.2H721v29.9h-90.2V15.2H721z"/>
</g>
<g>
	<path d="M815.1,15.7v94.9h-19V40.8l-9.6,2.8V23.8L815.1,15.7z"/>
	<path d="M838.3,110.6L854.7,82c-8.7-0.6-16-4.1-21.9-10.5c-6-6.4-9-13.9-9-22.6c0-9.1,3.2-16.9,9.7-23.5c6.4-6.5,14.2-9.7,23.4-9.7
		c9.2,0,17,3.2,23.5,9.7c6.5,6.5,9.8,14.4,9.8,23.5c0,5.3-1.2,10.4-3.7,15.2c-0.6,1-1.5,3-2,3.8L860,110.5L838.3,110.6z M857,63.1
		c7.8,0,14.3-6.5,14.3-14.2c0-7.7-6.5-14.3-14.3-14.3c-7.8,0-14.2,6.6-14.2,14.3C842.8,56.5,849.2,63.1,857,63.1z"/>
</g>
<path d="M888,165h-94c-5.5,0-10-4.5-10-10v-25c0-5.5,4.5-10,10-10h94c5.5,0,10,4.5,10,10v25C898,160.5,893.5,165,888,165z"/>
<g>
</g>
<g>
</g>
<g>
</g>
<g>
</g>
<g>
</g>
<g>
</g>
<g>
</g>
<g>
</g>
<g>
</g>
<g>
</g>
<g>
</g>
<g>
</g>
<g>
</g>
<g>
</g>
<g>
</g>
</svg>
