<?xml version="1.0" encoding="UTF-8" standalone="no"?>
<!-- Created with Inkscape (http://www.inkscape.org/) -->

<svg
   xmlns:dc="http://purl.org/dc/elements/1.1/"
   xmlns:cc="http://creativecommons.org/ns#"
   xmlns:rdf="http://www.w3.org/1999/02/22-rdf-syntax-ns#"
   xmlns:svg="http://www.w3.org/2000/svg"
   xmlns="http://www.w3.org/2000/svg"
   xmlns:sodipodi="http://sodipodi.sourceforge.net/DTD/sodipodi-0.dtd"
   xmlns:inkscape="http://www.inkscape.org/namespaces/inkscape"
   width="210mm"
   height="297mm"
   viewBox="0 0 744.09448819 1052.3622047"
   id="svg4186"
   version="1.1"
   inkscape:version="0.91 r13725"
   sodipodi:docname="London.svg">
  <defs
     id="defs4188" />
  <sodipodi:namedview
     id="base"
     pagecolor="#ffffff"
     bordercolor="#666666"
     borderopacity="1.0"
     inkscape:pageopacity="0.0"
     inkscape:pageshadow="2"
     inkscape:zoom="0.49497475"
     inkscape:cx="171.55275"
     inkscape:cy="436.51052"
     inkscape:document-units="px"
     inkscape:current-layer="layer1"
     showgrid="false"
     inkscape:window-width="1366"
     inkscape:window-height="715"
     inkscape:window-x="-8"
     inkscape:window-y="-8"
     inkscape:window-maximized="1" />
  <metadata
     id="metadata4191">
    <rdf:RDF>
      <cc:Work
         rdf:about="">
        <dc:format>image/svg+xml</dc:format>
        <dc:type
           rdf:resource="http://purl.org/dc/dcmitype/StillImage" />
        <dc:title></dc:title>
      </cc:Work>
    </rdf:RDF>
  </metadata>
  <g
     inkscape:label="Layer 1"
     inkscape:groupmode="layer"
     id="layer1">
    <rect
       style="opacity:1;fill:#f5f5f5;fill-opacity:1;fill-rule:nonzero;stroke:none;stroke-width:2.92799997;stroke-linecap:square;stroke-linejoin:miter;stroke-miterlimit:4;stroke-dasharray:none;stroke-dashoffset:0;stroke-opacity:1"
       id="rect4740"
       width="800"
       height="600"
       x="-38.385807"
       y="153.35703" />
    <path
       style="clip-rule:evenodd;fill-rule:evenodd"
       d="m 424.64663,466.64847 14.31641,-53.58425 -3.32614,-0.86832 -0.57769,-0.14352 -3.32614,-0.43415 -3.18262,-0.43416 c -0.43416,0 -0.86831,0 -1.30247,0 l -2.60494,0 0,55.4644 z m -394.931814,76.25727 -22.8488318,0 0,33.79247 -8.098279,0 0,13.43373 35.5721408,0 699.053134,0 0,-4.62144 0,-8.81229 0,-14.87615 0,-9.67703 0,-18.48574 0,-15.74446 -22.12764,0 0,7.65336 c -7.66411,-3.46608 -14.45992,-7.36631 -20.39101,-11.55359 -9.69138,-6.93574 -17.20839,-14.87614 -22.27115,-23.97549 l 0,-16.31855 -1.446,0 0,-4.47791 0,-0.57769 -0.14352,0 -0.72479,-3.17544 -0.28705,-2.02367 0,-1.15535 0.43416,0 c 0.43416,0 0.86832,-0.43416 0.86832,-0.86832 l 0,0 c 0,-0.43416 -0.43416,-0.7212 -0.86832,-0.7212 l -0.43416,0 0,-1.15536 -0.86831,0 0,1.15536 -0.43774,0 c -0.43057,0 -0.7212,0.29064 -0.7212,0.7212 l 0,0 c 0,0.43416 0.29063,0.86832 0.7212,0.86832 l 0.43774,0 0,1.29888 -0.43774,1.88014 -0.57768,3.17544 -2.02368,0 -1.73662,-4.91206 -3.46966,-10.97591 0,-1.15536 1.58951,0 c 0.43057,0 0.7212,-0.43415 0.7212,-0.86472 -0.14352,-0.29064 -0.14352,-0.57768 -2.3143,-0.57768 l 0,-2.31072 -1.01543,0 0,2.31072 c -1.29888,0 -2.02367,-0.14353 -2.16719,0.43416 -0.29064,0.72119 0,1.00824 0.57768,1.00824 l 1.58951,0 0,1.15536 -3.61318,10.97591 -1.5931,4.91206 -2.02009,0 -0.72479,-3.17544 -0.29064,-2.02367 0,-1.15535 0.43416,0 c 0.43415,0 0.72479,-0.43416 0.72479,-0.86832 l 0,0 c 0,-0.43416 -0.29064,-0.7212 -0.72479,-0.7212 l -0.43416,0 0,-1.15536 -0.86831,0 0,1.15536 -0.43416,0 c -0.43415,0 -0.7212,0.29064 -0.7212,0.7212 l 0,0 c 0,0.43416 0.28705,0.86832 0.7212,0.86832 l 0.43416,0 0,1.29888 -0.28704,1.88014 -0.72479,3.17544 -0.14353,0 0,0.57769 0,4.47791 -1.44599,0 0,8.37455 -18.51086,0 0,-4.47432 -0.72479,0 0,4.47432 c -6.7958,0 -13.44809,0 -20.10038,0 l 0,-4.47432 -0.72479,0 0,4.47432 -18.50727,0 0,-8.37455 -1.44599,0 0,-4.47791 0,-0.57769 -0.14353,0 -0.72479,-3.17544 -0.43415,-1.88014 0,-1.29888 0.58127,0 c 0.43057,0 0.7212,-0.43416 0.7212,-0.86832 l 0,0 c 0,-0.43416 -0.29063,-0.7212 -0.7212,-0.7212 l -0.58127,0 0,-1.15536 -0.72479,0 0,1.15536 -0.43057,0 c -0.43775,0 -0.8719,0.29064 -0.8719,0.7212 l 0,0 c 0,0.43416 0.43415,0.86832 0.8719,0.86832 l 0.43057,0 0,1.15535 -0.43057,2.02367 -0.58127,3.17544 -2.16719,0 -1.58952,-4.91206 -3.47325,-10.97591 0,-1.15536 1.58951,0 c 0.58128,0 0.86832,-0.28705 0.58128,-1.00824 -0.14712,-0.57769 -0.86833,-0.43416 -2.17079,-0.43416 l 0,-2.31072 -1.01183,0 0,2.31072 c -2.1672,0 -2.1672,0.28704 -2.31431,0.57768 0,0.43415 0.28704,0.86472 0.7212,0.86472 l 1.58951,0 0,1.15536 -3.61677,10.97591 -1.58952,4.91206 -2.02367,0 -0.72479,-3.17544 -0.29063,-1.88014 0,-1.29888 0.43415,0 c 0.43416,0 0.7248,-0.43416 0.7248,-0.86832 l 0,0 c 0,-0.43416 -0.29064,-0.7212 -0.7248,-0.7212 l -0.43415,0 0,-1.15536 -0.86831,0 0,1.15536 -0.57769,0 c -0.29063,0 -0.72479,0.29064 -0.72479,0.7212 l 0,0 c 0,0.43416 0.43416,0.86832 0.72479,0.86832 l 0.57769,0 0,1.15535 -0.43417,2.02367 -0.57767,3.17544 -0.14711,0 0,0.57769 0,4.47791 -1.446,0 0,16.31855 c -5.06277,9.09935 -12.58336,17.04334 -22.41468,23.97549 -1.15536,1.01183 -2.45782,1.72945 -3.76029,2.59777 -0.43416,-0.28705 -0.86832,-0.43417 -1.446,-0.43417 l 0,-1.15535 0,-4.19087 c 0,-1.4424 -0.43415,-2.8884 -1.29888,-4.04017 l 0,-0.58127 c 0,-2.8884 -2.1672,-5.34263 -4.91924,-5.7732 l 0,-8.52167 -1.446,0 0,8.52167 c -2.89199,0.43415 -5.06276,2.8884 -5.06276,5.7732 l 0,0.58127 c -0.86831,1.15536 -1.29889,2.59777 -1.29889,4.04017 l 0,4.19087 0,0 0,-2.89198 -3.0355,0 0,2.89198 -2.1672,0 0,-2.89198 -3.03551,0 0,2.89198 -2.17078,0 0,-2.89198 -3.17903,0 0,2.89198 -2.1672,0 0,-2.89198 -3.0391,0 0,2.89198 -2.16719,0 0,-2.89198 -3.0355,0 0,2.89198 0,0 0,-4.19087 c 0,-1.4424 -0.43775,-2.8884 -1.30248,-4.04017 l 0,-0.58127 c 0,-2.8884 -2.1672,-5.34263 -4.91924,-5.7732 l 0,-5.34623 c 0.43415,-1.4424 1.01542,-3.03192 1.44599,-4.47791 0.43416,0.57768 1.01183,1.01183 1.73663,1.30247 1.58951,0.29063 3.32614,-0.57768 3.76029,-2.1672 0.29064,-1.58951 -0.57767,-3.17902 -2.16719,-3.60959 -0.72479,-0.28705 -1.58952,-0.14352 -2.1672,0.1471 1.01185,-4.33439 1.58952,-8.95582 1.73304,-13.72077 0.57768,0.57767 1.30247,0.86471 2.1672,0.86471 1.58951,0 2.89198,-1.29888 2.89198,-3.03192 0,-1.5895 -1.30247,-2.89198 -2.89198,-2.89198 -0.86832,0 -1.58952,0.29063 -2.1672,0.72479 -0.14352,-4.62502 -0.72479,-9.24646 -1.73304,-13.72079 0.57768,0.43058 1.446,0.43058 2.1672,0.28706 1.58952,-0.43416 2.45783,-2.02009 2.16719,-3.6096 -0.43415,-1.58594 -2.16719,-2.59777 -3.76029,-2.1672 -0.7248,0.29063 -1.30247,0.72479 -1.73663,1.29888 -1.29888,-4.47433 -3.0391,-8.66519 -5.20629,-12.70895 0.58127,0.14712 1.44599,0 2.02367,-0.28704 1.44599,-0.86832 2.02368,-2.74488 1.15895,-4.19087 -0.86831,-1.29888 -2.60494,-1.87297 -4.05093,-1.01184 -0.72479,0.43416 -1.15536,1.01184 -1.446,1.73304 -2.31431,-4.04375 -5.20629,-7.65694 -8.38891,-10.9759 0.72479,0 1.446,-0.29064 2.02727,-0.86832 1.15535,-1.15536 1.15535,-3.03192 0,-4.18728 -1.15895,-1.29888 -3.0391,-1.29888 -4.19446,0 -0.57768,0.43416 -0.86832,1.15895 -0.86832,1.87656 -3.32614,-3.03192 -7.08643,-5.92032 -10.99026,-8.37815 0.72121,-0.14352 1.30247,-0.72119 1.73663,-1.29887 0.72479,-1.44241 0.29063,-3.32256 -1.15895,-4.04376 -1.44599,-0.86831 -3.18262,-0.43416 -4.04734,1.01184 -0.43415,0.7212 -0.43415,1.4424 -0.29063,2.16719 -4.04735,-2.16719 -8.38892,-3.90023 -12.87042,-5.34264 0.72121,-0.29063 1.15536,-1.01183 1.30248,-1.73304 0.43415,-1.58951 -0.43417,-3.17903 -2.02368,-3.6096 -1.58951,-0.43415 -3.32614,0.57768 -3.7603,2.1672 -0.14711,0.72479 0,1.44599 0.29063,2.02009 -4.48508,-1.01185 -8.96658,-1.58594 -13.74231,-1.72946 0.58127,-0.58127 0.87191,-1.29888 0.87191,-2.02367 0,-1.58593 -1.446,-3.03551 -3.0391,-3.03551 -1.5931,0 -2.89198,1.44599 -2.89198,3.03551 0,0.72479 0.29063,1.4424 0.72479,2.02367 -4.62862,0.14352 -9.25722,0.72121 -13.73873,1.72946 0.29064,-0.57769 0.43416,-1.29889 0.29064,-2.02009 -0.43775,-1.58952 -2.02367,-2.60135 -3.61678,-2.1672 -1.58951,0.43416 -2.60494,2.02009 -2.16719,3.6096 0.14352,0.72121 0.7212,1.44241 1.30247,1.73304 -4.48509,1.44241 -8.82307,3.17903 -12.87042,5.34264 0.28705,-0.7212 0.14353,-1.44599 -0.29063,-2.16719 -0.72478,-1.446 -2.60135,-1.87657 -4.04734,-1.01184 -1.446,0.7212 -1.88015,2.60135 -1.01184,4.04376 0.29063,0.57768 1.01184,1.15535 1.5931,1.29887 -3.9074,2.45783 -7.52059,5.34623 -10.99026,8.37815 0,-0.7212 -0.28704,-1.4424 -0.86831,-1.87656 -1.15895,-1.29888 -3.03551,-1.29888 -4.19445,0 -1.15537,1.15895 -1.15537,3.03192 0,4.18728 0.57767,0.57768 1.30246,0.86832 2.02367,0.86832 -3.18262,3.31896 -5.93108,6.93215 -8.38533,10.9759 -0.29062,-0.72479 -0.72479,-1.29888 -1.44599,-1.73304 -1.44599,-0.86472 -3.17903,-0.28704 -4.05093,1.01184 -0.72479,1.44599 -0.28705,3.32255 1.15895,4.19087 0.58127,0.28704 1.44599,0.43416 2.16719,0.28704 -2.16719,4.04376 -4.05093,8.23462 -5.34981,12.70895 -0.43775,-0.57768 -1.01543,-1.01183 -1.73663,-1.29888 -1.58951,-0.43057 -3.18261,0.58126 -3.61318,2.1672 -0.43416,1.58951 0.43057,3.17902 2.02007,3.6096 0.7248,0.14352 1.58952,0.14352 2.17079,-0.28706 -1.01184,4.47433 -1.58951,9.09577 -1.73663,13.72079 -0.57768,-0.43416 -1.30247,-0.72479 -2.02366,-0.72479 -1.73304,0 -3.03552,1.29888 -3.03552,2.89198 0,1.72946 1.30248,3.03192 3.03552,3.03192 0.72478,0 1.44598,-0.28704 2.02366,-0.86471 0.14712,4.76854 0.72479,9.38638 1.73663,13.72077 -0.58127,-0.29062 -1.44599,-0.43415 -2.17079,-0.1471 -1.5895,0.43415 -2.45782,2.02008 -2.02007,3.60959 0.43057,1.58952 2.02007,2.45783 3.61318,2.1672 0.72479,-0.29064 1.30247,-0.72479 1.73663,-1.30247 1.29888,4.47791 3.17902,8.66878 5.34981,12.70894 -0.7212,-0.14352 -1.58951,0 -2.16719,0.29064 -1.446,0.86831 -1.88015,2.74488 -1.15895,4.04017 0.8719,1.44599 2.74847,2.02367 4.05093,1.15536 0.72479,-0.43416 1.15537,-1.00825 1.44599,-1.73304 2.45783,3.90023 5.20629,7.65336 8.38533,10.97591 l -0.14352,0 -9.25723,0 0,9.38998 -27.76449,0 0,-3.75312 -2.1672,-71.34879 c 0,-3.75313 -2.46142,-5.34264 -8.53244,-8.23104 0,-9.24287 0,-18.34222 0,-27.58509 0.58127,-2.60135 -1.30246,-5.48616 -5.34981,-8.37455 3.0391,6.64151 2.17079,11.84063 -2.74846,15.59734 -5.20629,2.45423 -8.2418,6.78863 -8.96659,13.28663 l 0,115.1089 -12.87041,0 c 2.46142,-21.23061 3.47326,-41.30587 2.89199,-60.51641 -1.01184,-28.01924 -4.77214,-55.3137 -12.43626,-78.56799 -5.20628,-15.59734 -9.40075,-20.65293 -13.44809,-20.50941 -4.33797,0.14711 -8.53243,6.06742 -13.5952,21.8083 -7.37707,22.96365 -10.99026,49.68401 -12.0021,77.2691 -0.57768,19.21054 0.43416,39.2858 2.89199,60.51641 l -20.08962,0 0,-3.32255 c 0,0 -0.72479,0 -2.17077,0 0,0 0,-6.06385 0,-18.1987 2.17077,-1.58592 2.02367,-2.8884 -0.14352,-3.75312 0,0 0,-6.06743 0,-18.1987 0.72119,-0.43415 1.15535,-0.86472 1.4424,-1.29888 -0.43416,-1.58952 -1.87656,-2.60135 -4.19087,-3.17544 0,0 0,-2.45425 0,-7.51342 0.86831,-0.28704 1.30247,-0.7212 1.30247,-1.15536 -0.14711,-1.00825 -1.15895,-1.44241 -2.74847,-1.58951 0,-2.02009 -0.43415,-3.32256 -1.30246,-4.04377 0,-2.88839 0,-5.77679 0,-8.66519 1.44599,-0.72119 2.16719,-1.29888 2.16719,-2.02008 -0.29063,-0.43415 -0.86831,-0.72479 -2.02367,-0.72479 0.14711,-1.58593 -0.57768,-3.03192 -2.31431,-4.18728 -0.14352,-3.32256 -1.15535,-5.77679 -3.03551,-7.50983 0,-1.29888 0,-2.60135 0,-4.19087 0,0 -0.29063,0 -0.86831,0 0,0 -0.29063,-1.29888 -0.58127,-3.75312 -0.43056,2.45424 -0.57767,3.75312 -0.57767,3.75312 -0.57768,0 -1.01184,0 -1.01184,0 0,1.58952 0,2.89199 0,4.19087 -1.88015,1.72945 -2.89199,4.18727 -3.03909,7.50983 -1.58952,1.15536 -2.31431,2.60135 -2.1672,4.18728 -1.15536,0 -1.87657,0.29064 -2.02009,0.72479 -0.1471,0.7248 0.57769,1.29889 2.02009,2.02008 0,2.8884 0,5.7768 0,8.66519 -0.86832,0.72121 -1.15536,2.02368 -1.15536,4.04377 -1.73662,0.1471 -2.60494,0.58126 -2.89199,1.58951 0.14353,0.43416 0.57768,0.86832 1.30247,1.15536 0,5.05917 0,7.51342 0,7.51342 -1.73662,0.43416 -3.03909,1.29888 -3.76029,2.45424 l -3.7603,0 0,-4.04376 -7.09003,0 0,-4.3308 -2.02367,-0.43416 0,-0.1471 c 0.29063,-5.19912 -2.45783,-10.10761 -7.08644,-12.41832 0,-1.15536 -0.57769,-2.31071 -1.73304,-2.74487 0,-3.32256 0,-5.92032 0,-7.94399 0.29063,-1.15537 -0.14353,-2.1672 -1.30247,-3.32256 l 0.14352,-3.31896 -1.15536,0 -1.30247,0 0.14353,3.31896 c -1.15536,1.15895 -1.58952,2.16719 -1.30248,3.32256 0,2.02008 0,4.62143 0,7.94399 -1.15535,0.43416 -1.73304,1.58951 -1.73304,2.74487 -4.6286,2.31071 -7.37707,7.22279 -7.08643,12.41832 l 0,0.1471 -2.02368,0.43416 0,4.3308 -7.09003,0 0,4.04376 -3.76029,0 c -0.72479,-1.15536 -2.02009,-2.02008 -3.7603,-2.45424 0,0 0,-2.45425 0,-7.51342 0.72479,-0.28704 1.15895,-0.7212 1.30247,-1.15536 -0.28705,-1.00825 -1.15536,-1.44241 -2.89199,-1.58951 0,-2.02009 -0.28705,-3.32256 -1.15536,-4.04377 0,-2.88839 0,-5.77679 0,-8.66519 1.446,-0.72119 2.1672,-1.29888 2.02368,-2.02008 -0.14712,-0.43415 -0.8719,-0.72479 -2.02368,-0.72479 0.14352,-1.58593 -0.58126,-3.03192 -2.16719,-4.18728 -0.14711,-3.32256 -1.15895,-5.77679 -3.0391,-7.50983 0,-1.29888 0,-2.60135 0,-4.19087 0,0 -0.43416,0 -1.01183,0 0,0 -0.14712,-1.29888 -0.58127,-3.75312 -0.29064,2.45424 -0.57768,3.75312 -0.57768,3.75312 -0.58127,0 -0.86831,0 -0.86831,0 0,1.58952 0,2.89199 0,4.19087 -1.88015,1.72945 -2.89198,4.18727 -3.03552,7.50983 -1.73662,1.15536 -2.46141,2.60135 -2.31429,4.18728 -1.15895,0 -1.73664,0.29064 -2.02368,0.72479 0,0.7248 0.72479,1.29889 2.1672,2.02008 0,2.8884 0,5.7768 0,8.66519 -0.86831,0.72121 -1.30247,2.02368 -1.30247,4.04377 -1.58953,0.1471 -2.60136,0.58126 -2.74847,1.58951 0,0.43416 0.43775,0.86832 1.30247,1.15536 0,5.05917 0,7.51342 0,7.51342 -2.31431,0.57768 -3.7603,1.58592 -4.19086,3.17544 0.28704,0.43416 0.72119,0.86831 1.44598,1.29888 0,12.13127 0,18.1987 0,18.1987 -2.16719,0.86832 -2.31789,2.1672 -0.1471,3.75312 0,12.13127 0,18.1987 0,18.1987 -1.446,0 -2.17079,0 -2.17079,0 l 0,3.32255 -17.2048,0 0,-81.30569 2.31431,-2.8884 -0.14712,-28.88397 -1.87656,-3.46608 0,-6.93573 -0.72479,-1.58594 -1.01183,-10.54175 -0.87191,9.24287 -2.60134,-3.03191 -2.02368,-5.48975 0,-16.75271 -1.01183,-10.11118 -1.011842,9.38998 -5.64045,-30.76412 -5.64045,30.76412 -1.01183,-9.38998 -0.86831,10.11118 0,16.75271 -2.17079,5.48975 -2.60135,3.03191 -0.86831,-9.24287 -1.01543,10.54175 -0.7212,1.58594 0,6.93573 -1.88015,3.46608 -0.14352,28.88397 2.3143,2.8884 0,81.31287 -8.2418,0 0,10.68886 -13.595194,0 0,-30.76412 1.011834,-1.29888 -0.143522,-12.99958 -0.868312,-1.58952 0,-3.03192 -0.290639,-0.72479 -0.868312,-0.57768 -1.158941,-1.4424 -0.868321,-2.45783 0,-7.50984 -0.868312,-0.29062 -2.601352,-13.86432 -2.461414,13.86432 -0.868312,0.29062 0,7.50984 -1.011835,2.45783 -1.15895,1.4424 -0.868312,0.57768 -0.287045,0.72479 0,3.03192 -0.868312,1.58952 0,6.64152 -0.581268,-1.15536 0,-3.03192 -0.287045,-0.7212 -0.871905,-0.57768 -1.298879,-1.44241 -0.871906,-2.45424 0,-7.51342 -0.868312,-0.28704 -2.601352,-14.00784 -2.457829,14.00784 -0.868313,0.28704 0,7.51342 -1.011834,2.45424 -1.155357,1.44241 -0.871905,0.57768 -0.287045,0.7212 0,3.03192 -0.868312,1.58951 0,12.996 1.011834,1.29888 0,3.76029 z m 681.554114,-14.73261 -9.8349,0 c -2.74846,-1.58952 -5.34981,-3.31896 -7.95475,-5.0556 -10.12196,-7.21919 -18.8015,-16.60559 -24.87251,-27.87572 l 0,-1.44241 c 5.06276,8.08752 12.14562,15.45383 21.25931,21.8083 6.21814,4.47791 13.30457,8.37456 21.40285,11.98775 l 0,0.57768 z m -13.59161,0 -5.34981,0 0,8.95582 -18.79791,0 -3.32615,0 0,-3.32255 -3.03909,0 0,-37.26212 c 6.21813,11.26654 14.89408,20.79646 25.16315,28.16277 1.73304,1.15895 3.46966,2.31072 5.34981,3.46608 l 0,0 z m -5.35341,12.99958 0,1.44241 -18.7979,0 0,-1.44241 18.7979,0 z m 0,3.03551 0,7.9404 -18.7979,0 0,-7.9404 18.7979,0 z m -316.26334,-26.14269 5.9239,0 0.58127,-2.31072 -3.03551,1.01184 0,0 -3.61678,1.29888 0.14712,0 z m 7.37348,0 2.74847,0 c -0.72479,-0.57768 -1.58952,-1.29888 -2.31431,-1.87656 l -0.43416,1.87656 z m 5.20629,0 4.05094,0 0,2.74487 0,0 1.29888,0.72479 25.01961,-43.18601 0.72479,-2.74488 -37.31235,37.1186 1.15895,1.29887 c 0.28705,0.14353 0.43057,0.28705 0.7212,0.57769 l 2.45783,2.02008 1.88015,1.44599 z m 4.05094,4.47791 0,1.73304 1.29888,-0.86831 c -0.43057,-0.29064 -0.86832,-0.57768 -1.29888,-0.86473 l 0,0 z m 0,3.32256 0,4.47432 c 0.72119,0.43775 1.44598,0.72479 2.16719,1.15536 l 0,-3.75312 0,-3.32255 -2.16719,1.44599 z m 0,6.64151 0,19.64111 6.50516,0 3.32615,-12.41832 c 0,-0.28704 0,-0.57767 0.14711,-0.86831 0.14352,-0.28704 0.14352,-0.57767 0.43415,-0.86473 l 0.28705,-1.15894 c -3.7603,-1.15177 -7.37348,-2.59777 -10.69962,-4.33081 l 0,0 z m 10.26547,19.64111 42.228,0 -2.60494,-9.5335 c -1.30247,0 -2.45783,-0.86473 -2.89198,-2.31073 -0.14712,-0.72119 0,-1.4424 0.29063,-2.1636 -4.48509,1.15536 -8.96659,1.72945 -13.74231,1.87656 0.58126,0.43416 0.8719,1.15536 0.8719,2.02008 0,1.58952 -1.44599,2.8884 -3.0391,2.8884 -1.59311,0 -2.89198,-1.29888 -2.89198,-2.8884 0,-0.86831 0.29063,-1.58592 0.72479,-2.02008 -4.62861,-0.14711 -9.25723,-0.7212 -13.73872,-1.87656 0.29063,0.7212 0.43416,1.44241 0.29063,2.1636 -0.43774,1.446 -1.58951,2.31073 -2.89199,2.31073 l -2.60493,9.5335 z m 45.9883,0 4.48509,0 0,-13.43015 1.29888,0 0,-5.63327 2.31431,0 c -0.14712,-0.43057 -0.14712,-0.86473 0,-1.29888 -3.90383,2.02367 -7.95117,3.75671 -12.14921,5.05559 l 0.29063,1.15895 c 0.14352,0.28704 0.29063,0.57767 0.29063,0.86472 0.14353,0.29063 0.14353,0.58127 0.14353,0.86832 l 3.32614,12.41472 z m 141.57093,10.25471 48.58966,0 0,-17.62102 c -16.05302,-2.74488 -32.53662,-2.74488 -48.58966,0 l 0,17.62102 z m -54.37004,-44.19428 c 0,0.28705 0,0.43416 0,0.72121 l 0,0 c 0,1.44599 -1.15536,2.74487 -2.60494,2.74487 l 0,0 0,3.32256 c 0.86832,-0.58127 1.88015,-1.29889 2.74846,-1.88016 10.12195,-7.21919 18.65438,-16.60559 24.87251,-27.87572 l 0,-1.44241 c -5.20629,8.08752 -12.29273,15.45383 -21.25573,21.8083 -1.30247,0.86832 -2.45783,1.73304 -3.7603,2.60135 l 0,0 z m -2.60494,8.95583 0,9.96407 3.7603,0 0,-0.86831 3.03551,0 0,0.86831 2.17078,0 0,-0.86831 3.03551,0 0,0.86831 2.16719,0 0,-0.86831 3.0391,0 0,0.86831 2.74846,0 0,-4.04375 6.79939,0 0,0.72479 2.31431,0 0,-37.26571 c -6.21812,11.26654 -14.89408,20.79646 -25.15955,28.16277 -1.30606,0.86831 -2.60853,1.73304 -3.911,2.45783 l 0,0 z m -71.86907,7.65336 0,3.90023 2.74488,0 0,-2.45783 2.89199,0 0,2.45783 2.3143,0 0,-2.45783 2.89199,0 0,2.45783 2.3143,0 0,-2.45783 2.89558,0 0,2.45783 3.76029,0 0,-17.04334 0,0 c -1.44599,0 -2.60134,-1.29888 -2.60134,-2.74487 l 0,0 c 0,-1.44241 1.15535,-2.59776 2.60134,-2.74488 l 0,-1.15535 0,-4.19087 c 0,-0.43057 0,-0.72121 0.14353,-1.15536 -2.02368,3.0355 -4.33798,5.77679 -6.7994,8.37455 0.72479,0 1.446,0.29064 2.02727,0.86832 1.15535,1.15536 1.15535,3.03192 0,4.18728 -1.15895,1.15536 -3.0391,1.15536 -4.19446,0 -0.57768,-0.57768 -0.86831,-1.29888 -0.86831,-2.02009 -3.32614,3.17545 -7.08644,6.06744 -10.99027,8.52167 0.72121,0.14352 1.30247,0.57769 1.73663,1.29888 0.7212,1.44958 0.28705,3.03551 -0.86832,3.90383 l 0,0 z m 25.15956,-34.08668 c 0.29064,-0.14352 0.57768,-0.14352 1.01184,-0.28704 l 0,-1.87656 c -0.43058,0.72119 -0.7212,1.4424 -1.01184,2.1636 l 0,0 z m 1.01184,-7.36272 0,-1.44241 0.43415,0 c 0.14353,-0.57768 0.43416,-1.15535 0.58127,-1.73304 l -3.76029,0.43416 -3.17904,0.57768 2.16719,2.31072 2.60495,2.8884 c 0.43057,-1.01543 0.72119,-2.02726 1.15177,-3.03551 l 0,0 z m 97.76059,-4.62144 0,2.45424 c 19.52269,0 39.04538,0 58.56808,0 l 0,-2.45424 c -19.5227,0 -39.04539,0 -58.56808,0 l 0,0 z m 0,3.89665 0,2.88839 -1.446,0 0,38.27396 3.0391,0 0,3.32255 3.32255,0 c 16.20015,0 32.39311,0 48.58966,0 l 3.46967,0 0,-3.32255 3.03909,0 0,-38.27396 -1.44599,0 0,-2.88839 c -19.5227,0 -39.04539,0 -58.56808,0 l 0,0 z m 4.91206,46.07442 0,2.31072 c 16.20014,0 32.39312,0 48.58966,0 l 0,-2.31072 c -16.19654,0 -32.38952,0 -48.58966,0 l 0,0 z m -165.86935,-63.83537 14.17288,53.14651 -0.14711,0 -0.43416,0.1471 -3.46966,0.57769 -3.17903,0.57767 -0.72479,0.14352 -3.32614,0.14712 -2.89558,0.29063 0,-55.03024 z m 14.89768,55.89497 1.30246,5.19912 c -1.15894,0.28704 -2.45783,0.57767 -3.76029,0.86472 l 1.01183,-3.6096 0.72479,-3.17903 0.72121,0.72479 z m 4.33797,2.59776 -1.30247,-4.91207 c 0.72121,-0.29063 1.44599,-0.43415 2.02367,-0.7212 l -0.43415,3.03551 -0.28705,2.59776 z m -1.73304,-6.35806 -12.00209,-44.91906 23.28299,40.00699 -1.15895,0.72479 -0.43416,0.14352 -3.18262,1.44241 0,0 -3.17903,1.44599 -0.29063,0.14352 -3.03551,1.01184 z m -13.01752,-48.67219 -0.72479,-2.74487 37.31235,37.11859 -1.446,1.44241 c -0.14352,0.28705 -0.43415,0.43415 -0.57767,0.7212 l -2.60135,2.02368 0,0 -2.46142,2.02367 -0.58127,0.29063 -2.89198,1.87656 0,0 -1.01184,0.43416 -25.01603,-43.18603 z m -1.15536,-4.76496 -0.14711,-0.43056 47.4343,27.44156 -1.58951,2.60136 -0.29064,0.57768 -2.02367,2.60135 -2.02367,2.60135 c -0.14352,0.14353 -0.29064,0.43057 -0.57768,0.7212 l -2.16719,2.31072 0,0 -0.14712,0 -38.46771,-38.42466 z m -4.33797,1.30248 -14.17288,53.14651 0.14352,0 3.32614,0.72479 3.32614,0.57767 0.72479,0.14352 3.18262,0.14712 3.32614,0.29063 0.14353,0 0,-55.03024 z m -14.75415,55.17018 -1.58952,5.92031 c 1.01184,0.28705 2.16719,0.57769 3.32614,0.72121 l -1.01542,-3.6096 0,0 -0.72479,-3.17545 0,0.14353 z m -4.4815,2.59777 1.15894,-4.18729 c -0.86831,-0.29063 -1.58951,-0.57767 -2.45783,-0.86831 l 0.43416,3.03192 0.29063,2.74487 0.5741,-0.72119 z m 1.58951,-5.63328 12.0021,-44.91906 -23.13588,40.00699 0.72479,0.43416 0.43416,0.29063 3.0355,1.44241 3.17904,1.4424 0.43774,0.14711 3.17903,1.00825 0.14352,0.14711 z m 14.17289,-53.43715 0.14711,-0.43056 -47.4343,27.44156 1.30246,2.31073 0.43416,0.57767 2.02367,2.60135 1.88016,2.60136 c 0.1471,0.14352 0.43415,0.43416 0.58126,0.7212 l 2.1672,2.31431 0.43415,0.28704 38.46413,-38.42466 z m -204.91474,23.2543 c -2.02009,0 -3.61319,1.58592 -3.61319,3.6096 0,2.02008 1.58951,3.60959 3.61319,3.60959 1.88014,0 3.47324,-1.58951 3.47324,-3.60959 0,-2.02368 -1.5931,-3.6096 -3.47324,-3.6096 l 0,0 z m 0,37.83979 0,0 c -2.1672,0 -3.76031,1.73304 -3.76031,3.90024 l 0,8.23104 7.5206,0 0,-8.23104 c 0,-2.1672 -1.73662,-3.90024 -3.76029,-3.90024 l 0,0 z m -74.76106,-37.83979 c 2.02367,0 3.61678,1.58592 3.61678,3.6096 0,2.02008 -1.59311,3.60959 -3.61678,3.60959 -1.88014,0 -3.46966,-1.58951 -3.46966,-3.60959 -0.004,-2.02368 1.58952,-3.6096 3.46966,-3.6096 l 0,0 z m 0,37.83979 0,0 c 2.17079,0 3.76031,1.73304 3.76031,3.90024 l 0,8.23104 -7.52061,0 0,-8.23104 c 0,-2.1672 1.73304,-3.90024 3.7603,-3.90024 l 0,0 z M 94.213978,439.35043 c 5.2063,0 9.400762,4.19087 9.400762,9.38998 0,5.19912 -4.194462,9.38998 -9.400762,9.38998 -5.20628,0 -9.40074,-4.19086 -9.40074,-9.38998 0,-5.19911 4.19087,-9.38998 9.40074,-9.38998 l 0,0 z M 471.93741,422.59772 c -0.43416,-0.43415 -0.86832,-0.86472 -1.29889,-1.15176 l -1.15894,3.46248 -1.01183,3.03551 3.18261,-0.86832 3.61678,-0.86831 c -1.15895,-1.29888 -2.17437,-2.45423 -3.32973,-3.6096 l 0,0 z m -2.60494,-2.45424 c -1.58952,-1.4424 -3.32615,-2.74487 -5.06277,-4.04375 l -0.72479,3.60959 -0.57768,3.17904 2.89199,-1.29888 0,0 3.47325,-1.446 z m -6.50517,-5.05559 c -1.73304,-1.29888 -3.61678,-2.45783 -5.49693,-3.6096 l -0.29064,3.75313 0,0 -0.29063,3.17902 2.89199,-1.58592 3.18621,-1.73663 z m -7.08645,-4.33439 c -1.88014,-1.15535 -3.9074,-2.02008 -5.93107,-2.88839 l 0.1471,3.75312 0.14353,3.17903 2.60494,-1.87657 3.0355,-2.16719 z m -7.51701,-3.46608 c -2.02367,-0.86831 -4.19445,-1.4424 -6.36524,-2.02367 l 0.72479,3.60961 0.57769,3.17902 2.3143,-2.16719 2.74846,-2.59777 z m -7.95834,-2.45423 c -2.16719,-0.57769 -4.33797,-1.01184 -6.50876,-1.29888 l 1.15895,3.60959 0.86831,3.03192 2.02367,-2.45783 0,0 2.45783,-2.8848 z m -8.2418,-1.58952 c -2.3143,-0.14711 -4.6286,-0.29064 -7.08643,-0.43416 l 1.58951,3.46608 1.58951,3.32256 1.87656,-3.17904 2.03085,-3.17544 z m -8.82306,-0.43416 c -2.16719,0.14352 -4.33439,0.14352 -6.50517,0.43416 l 1.87656,3.17903 1.73663,2.74488 1.29888,-2.88841 1.5931,-3.46966 z m -8.2418,0.7248 c -2.16719,0.29063 -4.33439,0.57767 -6.50517,1.15535 l 2.3143,2.8884 2.02368,2.45783 1.01183,-3.03192 1.15536,-3.46966 z m -8.2418,1.58592 c -2.16719,0.57767 -4.19086,1.15536 -6.21812,2.02009 l 2.60493,2.60135 0,0 2.31431,2.16719 0.57768,-3.17903 0.7212,-3.6096 z m -7.81122,2.60135 c -2.16721,0.86832 -4.04735,1.73663 -6.07102,2.74488 l 3.0355,2.3143 0,0 2.60135,1.87656 0.14712,-3.17903 0.28705,-3.75671 z m -7.51702,3.6096 c -2.02367,1.01184 -3.90382,2.1672 -5.64045,3.46608 l 3.18262,1.87656 2.74488,1.58952 -0.14352,-3.17904 -0.14353,-3.75312 z m -7.08644,4.47791 c -1.73662,1.29889 -3.46966,2.60135 -5.20629,4.04376 l 3.46967,1.44241 3.03551,1.29888 -0.57769,-3.17545 -0.7212,-3.6096 z m -6.36165,5.19912 c -0.58126,0.57767 -1.15535,1.15536 -1.73304,1.58593 -1.01542,1.01183 -2.02366,2.16719 -2.89198,3.17903 l 3.61677,1.01183 3.03552,0.86832 -1.01543,-3.03552 0,0 -1.01184,-3.60959 z m -5.78755,6.06742 c -1.446,1.73304 -2.74847,3.46608 -4.04735,5.19912 l 3.76029,0.58127 0,0 3.18262,0.57768 -1.30246,-2.8884 -1.5931,-3.46967 z m -4.91566,6.64511 c -1.15895,1.87656 -2.31431,3.75312 -3.32614,5.77321 l 3.76029,0.14712 3.18262,0 -1.73662,-2.60136 -1.88015,-3.31897 z m -4.05093,7.2192 c -1.01184,2.02009 -1.87656,4.04376 -2.60135,6.20737 l 3.76029,-0.43416 3.18262,-0.28705 -2.02367,-2.45783 -2.31789,-3.02833 z m -3.17904,7.80047 c -0.72479,2.02008 -1.30247,4.18728 -1.88014,6.35447 l 3.76029,-0.86831 3.0391,-0.7212 -2.3143,-2.16719 -2.60495,-2.59777 z m -2.17078,7.9404 c -0.43057,2.1672 -0.86831,4.33439 -1.01184,6.50158 l 3.47326,-1.15535 3.0355,-1.15536 -2.60493,-1.88015 -2.89199,-2.31072 z m -1.15536,8.23462 c -0.14711,1.88015 -0.29063,3.75671 -0.29063,5.48975 0,0.43057 0,0.72121 0,1.15536 l 3.32614,-1.73303 2.89198,-1.29889 -2.74845,-1.72945 -3.17904,-1.88374 z m -0.29063,8.37815 c 0.14711,2.1672 0.29063,4.33439 0.57768,6.50158 l 3.18262,-2.02008 2.74846,-1.73303 -3.03909,-1.29889 -3.46967,-1.44958 z m 0.8719,8.23104 c 0.43416,2.16719 0.86831,4.33438 1.4424,6.49799 l 2.89199,-2.45424 2.31431,-2.02008 -3.03552,-1.01184 -3.61318,-1.01183 z m 1.87656,8.08751 c 0.57768,2.1636 1.446,4.18727 2.16719,6.21095 l 2.60135,-2.74847 2.1672,-2.30713 -3.17903,-0.58126 -3.75671,-0.57409 z m 2.89557,7.80047 c 0.86832,2.02367 1.87657,4.04375 2.89199,5.92031 l 2.1672,-3.03551 0,0 1.87656,-2.60135 -3.17904,-0.14352 -3.75671,-0.13993 z m 3.75671,7.50624 c 1.15536,1.88015 2.31431,3.75671 3.61319,5.48975 l 1.88015,-3.32256 1.44599,-2.8884 -3.17902,0.29064 0,0 -3.76031,0.43057 z m 4.62862,6.79222 c 1.44598,1.72945 2.89198,3.46607 4.33797,5.05559 l 1.30248,-3.46608 1.15535,-3.03192 -3.03551,0.72121 -3.76029,0.7212 z m 25.88434,20.50941 c 2.02367,0.86473 4.19087,1.58593 6.21813,2.31072 l -0.43416,-3.75312 -0.43416,-3.17903 -2.46141,2.16719 -2.8884,2.45424 z m 15.90951,4.76496 c 2.1672,0.43416 4.33797,0.7212 6.65228,0.86473 l -1.44599,-3.46608 0,0 -1.15895,-3.03192 -1.73304,2.59776 0,0 -2.3143,3.03551 z m 8.38532,1.01183 c 1.15536,0 2.3143,0.14353 3.46966,0.14353 1.01184,0 2.02367,-0.14353 3.0391,-0.14353 l -1.73663,-3.32255 -1.44599,-2.74487 -1.58952,2.74487 -1.73662,3.32255 z m 8.24539,-0.1471 c 2.16719,-0.14353 4.48509,-0.29064 6.50876,-0.72121 l -2.17079,-3.03192 -1.73662,-2.60135 -1.15536,2.8884 -1.44599,3.46608 z m 16.34007,-3.17545 c 2.02367,-0.57768 4.19087,-1.4424 6.21813,-2.31072 l -2.89199,-2.45424 0,0 -2.45782,-2.02366 -0.43416,3.0355 -0.43416,3.75312 z m 7.66412,-3.03551 c 2.02367,-0.86472 4.04734,-2.02008 5.9275,-3.03192 l -3.18262,-2.16719 0,0 -2.60495,-1.73304 0,3.17904 -0.13993,3.75311 z m 7.37348,-4.04375 c 1.88016,-1.15536 3.61319,-2.45424 5.34982,-3.75313 l -3.32614,-1.58951 -2.8884,-1.44241 0.43057,3.17904 0,0 0.43415,3.60601 z m 6.7994,-4.76496 c 1.58952,-1.4424 3.32614,-2.8884 4.77214,-4.47792 l -3.46967,-1.29888 -3.03909,-1.01183 0.72479,3.0355 0,0 1.01183,3.75313 z m 6.07102,-5.63327 c 1.44599,-1.58593 2.89557,-3.31897 4.33798,-5.05559 l -3.76031,-0.86473 -3.0355,-0.58127 1.15536,2.8884 0,0 1.30247,3.61319 z m 5.34981,-6.35447 c 1.30247,-1.87298 2.60135,-3.6096 3.61678,-5.48617 l -3.7603,-0.43774 -3.18262,-0.28705 1.58952,2.8884 1.73662,3.32256 z m 4.48509,-7.07568 c 1.15536,-1.87657 2.16719,-3.90024 3.03551,-5.7768 l -3.7603,0 0,0 -3.17903,0.14712 1.87656,2.59776 2.02726,3.03192 z m 6.36165,-15.3103 c 0.58126,-2.02009 1.15895,-4.18728 1.44599,-6.35448 l -3.61318,1.01184 -3.0391,0.86832 2.46141,2.02367 2.74488,2.45065 z m 1.73663,-8.08752 c 0.28705,-2.16719 0.57767,-4.33438 0.7212,-6.64151 l -3.46967,1.4424 -3.0355,1.29888 2.74846,1.73304 3.03551,2.16719 z m 0.7212,-8.37814 c 0,-0.43416 0,-1.01184 0,-1.58593 0,-1.58952 0,-3.32255 -0.14353,-4.91206 l -3.32614,1.87656 -2.74846,1.58951 2.89199,1.44241 3.32614,1.58951 z m -0.28705,-8.23103 c -0.29063,-2.1672 -0.57767,-4.3344 -1.01183,-6.498 l -3.03552,2.1672 -2.45782,2.02008 2.89199,1.01184 3.61318,1.29888 z m -1.29888,-8.23104 c -0.58126,-2.1672 -1.15895,-4.33439 -1.73662,-6.35447 l -2.74488,2.59776 -2.3179,2.1672 3.0391,0.72479 3.7603,0.86472 z m -2.31789,-7.94757 c -0.86832,-2.1672 -1.58952,-4.18729 -2.60135,-6.06385 l -2.31431,2.8884 -2.02368,2.45783 3.18262,0.29063 3.75672,0.42699 z m -3.32614,-7.64978 c -1.01184,-2.02366 -2.1672,-3.90023 -3.32614,-5.77679 l -2.02368,3.17904 -1.58952,2.74487 3.18262,-0.14352 0,0 3.75672,0 z m -4.19446,-7.22278 c -1.29888,-1.73304 -2.60136,-3.6096 -4.04734,-5.20271 l -1.58952,3.32256 0,0 -1.30247,2.89198 3.18262,-0.43415 3.75671,-0.57768 z m -56.25019,-23.10718 c 0.86831,0 1.58952,0 2.45783,0.14352 l -1.30247,-2.88839 -1.15536,-2.45783 -1.15895,2.45783 -1.30247,2.88839 c 0.86832,-0.14352 1.58952,-0.14352 2.46142,-0.14352 l 0,0 z m 5.49334,0.28704 c 1.58951,0.14712 3.32255,0.29064 4.91565,0.57769 l -1.01183,-2.8884 -0.72479,-2.59777 -1.446,2.31073 -1.73303,2.59775 z m 7.37707,1.15536 c 1.58951,0.28705 3.18262,0.72479 4.77213,1.15537 l -0.58127,-3.03192 -0.43415,-2.60135 -1.73662,2.02367 0,0 -2.02009,2.45423 z m 7.22996,2.02009 c 1.58952,0.43416 3.03551,1.15535 4.62862,1.73304 l -0.29064,-3.03192 -0.14352,-2.74846 -1.88015,1.88014 -2.31431,2.1672 z m 6.94292,2.89199 c 1.44241,0.72119 2.8884,1.4424 4.3344,2.31071 l 0.1471,-3.0355 0.14711,-2.74488 -2.17078,1.58593 -2.45783,1.88374 z m 6.50517,3.75311 c 1.30247,0.86832 2.60495,1.73304 3.90383,2.74488 l 0.58126,-3.03192 0.57769,-2.59776 -2.45783,1.29888 -2.60495,1.58592 z m 5.9275,4.47792 c 1.30247,1.01183 2.45782,2.1672 3.61677,3.31896 l 0,0 1.01184,-3.03192 0.72479,-2.59776 -2.45783,1.15536 0,0 -2.89557,1.15536 z m 5.49334,5.19912 c 1.01542,1.15535 2.02367,2.45783 3.03909,3.60959 l 1.30247,-2.74487 0,0 1.15895,-2.45424 -2.60494,0.7212 -2.89557,0.86832 z m 4.6322,5.77679 c 1.01183,1.29888 1.87656,2.74488 2.74487,4.04375 l 1.58952,-2.60135 1.44598,-2.31071 -2.74845,0.43415 -3.03192,0.43416 z m 4.04733,6.35447 c 0.72121,1.44241 1.446,2.8884 2.02368,4.33439 l 2.02009,-2.31071 1.73662,-2.1672 -2.74846,0 -3.03193,0.14352 z m 3.0391,6.78864 c 0.72479,1.4424 1.15895,3.03192 1.58952,4.62143 l 2.31431,-2.1672 1.88014,-1.87656 -2.60493,-0.28704 -3.17904,-0.29063 z m 2.31072,7.07567 c 0.43775,1.58952 0.72479,3.17903 1.01184,4.76854 l 2.46141,-1.87656 2.1672,-1.58951 -2.60494,-0.57768 -3.03551,-0.72479 z m 1.446,7.3699 c 0.14352,1.58593 0.28704,3.17544 0.43415,4.91207 l 2.60135,-1.58952 2.45783,-1.29888 -2.60135,-1.01184 -2.89198,-1.01183 z m 0.43415,7.50625 0,0.1471 c 0,1.58593 0,3.17544 -0.14711,4.76496 l 2.89199,-1.29888 2.46141,-1.01183 -2.46141,-1.29889 -2.74488,-1.30246 z m -0.43415,7.51341 c -0.14352,1.58593 -0.43416,3.17545 -0.7248,4.76496 l 3.0391,-0.86831 2.60494,-0.7212 -2.3143,-1.58952 -2.60494,-1.58593 z m -1.29889,7.36272 c -0.43415,1.44241 -0.86831,3.03192 -1.29888,4.62144 l 3.03551,-0.43415 2.60135,-0.43416 -2.02367,-1.72945 -2.31431,-2.02368 z m -2.17078,7.07927 c -0.57768,1.58592 -1.29888,3.03192 -2.02008,4.47432 l 3.17903,-0.14352 2.60135,0 -1.73304,-2.02008 -2.02726,-2.31072 z m -3.18261,6.78504 c -0.7248,1.446 -1.58952,2.89198 -2.45783,4.19087 l 3.0355,0.28705 2.74847,0.29063 -1.58952,-2.1672 -1.73662,-2.60135 z m -3.90383,6.35806 c -0.86831,1.29888 -1.88015,2.59777 -2.89557,3.89665 l 2.89557,0.7212 2.74846,0.58126 -1.30246,-2.45423 -1.446,-2.74488 z m -4.62861,5.92032 c -0.7212,0.72121 -1.446,1.4424 -2.1672,2.16361 -0.43416,0.43416 -0.86831,0.86831 -1.30247,1.29888 l 2.89199,1.01183 2.60494,0.86832 -1.01184,-2.45424 0,0 -1.01542,-2.8884 z m -5.34623,5.19912 c -1.30246,1.01183 -2.60494,2.02008 -3.90382,3.03192 l 2.74846,1.4424 2.45783,1.15536 -0.57768,-2.59776 0,0 -0.72479,-3.03192 z m -5.93108,4.47791 c -1.44599,1.01184 -2.74846,1.87656 -4.19445,2.60135 l 2.60493,1.72945 0,0 2.17079,1.44241 -0.29064,-2.59777 -0.29063,-3.17544 z m -6.50876,3.90024 c -1.44599,0.72119 -2.89199,1.29888 -4.4815,2.02007 l 2.31431,1.87656 2.16719,1.87657 0,-2.74488 0,-3.02832 z m -14.17288,4.90847 c -1.44599,0.43416 -3.17903,0.7212 -4.77214,1.01184 l 1.87657,2.45424 1.44599,2.16361 0.7212,-2.59776 0.72838,-3.03193 z m -7.37349,1.30247 c -1.58952,0.14352 -3.17902,0.14352 -4.77213,0.29064 l 1.44599,2.74487 1.30247,2.31072 0.86832,-2.45783 1.15535,-2.8884 z m -7.37349,0.28705 c -1.73661,-0.14711 -3.32613,-0.29063 -4.91923,-0.43415 l 1.15894,2.88839 0,0 0.86831,2.60135 1.29889,-2.45783 1.59309,-2.59776 z m -7.52058,-0.72479 c -1.59311,-0.29063 -3.18262,-0.57768 -4.77572,-0.86473 l 0.72479,3.03193 0,0 0.72119,2.59776 1.446,-2.31072 0,0 1.88374,-2.45424 z m -14.46352,-4.04017 c -1.446,-0.57768 -2.89198,-1.29888 -4.33798,-2.02009 l 0,3.17904 0,2.59777 2.02367,-1.72946 2.31431,-2.02726 z m -18.65438,-12.13486 c -0.28705,-0.28704 -0.7212,-0.72119 -1.01184,-1.01183 -0.86831,-0.86473 -1.58951,-1.58593 -2.45782,-2.60135 l -1.01185,2.89199 -1.01183,2.60135 2.60494,-0.86832 0,0 2.8884,-1.01184 z m -5.05918,-5.48615 c -1.01543,-1.30248 -2.02368,-2.60136 -3.0391,-3.90024 l -1.44599,2.74487 -1.30248,2.31072 2.74847,-0.57768 3.0391,-0.57767 z m -4.48509,-6.06744 c -0.86831,-1.44599 -1.58952,-2.88839 -2.31431,-4.33439 l -1.88015,2.59777 0,0 -1.58951,2.16719 2.74846,-0.29063 0,0.14711 3.03551,-0.28705 z m -3.46967,-6.6451 c -0.7212,-1.4424 -1.44599,-2.8884 -1.87656,-4.47792 l -2.16719,2.31431 -1.88016,2.02009 2.74847,0 3.17544,0.14352 z m -2.74846,-6.93215 c -0.57768,-1.58594 -1.01184,-3.03192 -1.44599,-4.62144 l -2.31789,1.87656 -2.02009,1.87657 2.60136,0.43415 3.18261,0.43416 z m -1.88015,-7.21921 c -0.43415,-1.58592 -0.57768,-3.17544 -0.86831,-4.91206 l -2.45783,1.73304 -2.31789,1.58951 2.60493,0.7212 3.0391,0.86831 z m -1.01184,-7.50983 c -0.1471,-1.29888 -0.1471,-2.74488 -0.1471,-4.18728 l 0,-0.58127 -2.74488,1.29888 -2.46142,1.30248 2.46142,1.00825 2.89198,1.15894 z m -0.1471,-7.3663 c 0.1471,-1.72946 0.29063,-3.32256 0.58126,-4.90849 l -3.03909,1.01184 -2.45783,0.86831 2.31431,1.4424 2.60135,1.58594 z m 0.87189,-7.50984 c 0.28705,-1.58593 0.72121,-3.17903 1.15536,-4.76855 l -3.0355,0.72479 -2.74846,0.57768 2.16719,1.58952 2.46141,1.87656 z m 1.88016,-7.22279 c 0.43415,-1.58592 1.01183,-3.17903 1.58951,-4.62143 l -3.0391,0.29063 -2.74846,0.28705 1.88015,1.87656 2.3179,2.16719 z m 2.60134,-7.07926 c 0.7248,-1.44241 1.446,-2.8884 2.1672,-4.3308 l -3.03551,0 -2.74487,-0.14353 1.73304,2.16361 1.88014,2.31072 z m 3.46968,-6.49799 c 0.86831,-1.44242 1.73303,-2.74488 2.74845,-4.18729 l -3.03551,-0.43415 0,0 -2.74846,-0.43416 1.446,2.31072 1.58952,2.74488 z m 4.33797,-6.20737 c 1.01184,-1.29888 2.02367,-2.45783 3.18262,-3.75671 l -3.0391,-0.7212 -2.60135,-0.86832 1.15536,2.59777 1.30247,2.74846 z m 4.91925,-5.63328 c 1.15895,-1.01183 2.46141,-2.16719 3.61677,-3.17544 l -2.74846,-1.30247 -2.60494,-1.00824 0.86831,2.60135 0,0 0.86832,2.8848 z m 5.64044,-4.91206 c 1.30247,-0.86831 2.60136,-1.87656 4.04734,-2.74488 l -2.74487,-1.58951 -2.3143,-1.29888 0.43415,2.60135 0.57768,3.03192 z m 6.21454,-4.18728 c 1.446,-0.7212 2.89558,-1.58952 4.33798,-2.31072 l -2.45783,-1.73304 0,0 -2.16719,-1.73303 0.14352,2.74487 0.14352,3.03192 z m 6.79939,-3.32256 c 1.446,-0.72479 2.89199,-1.29888 4.4851,-1.73304 l -2.17079,-2.16719 -2.02008,-1.87656 -0.14353,2.74487 -0.1507,3.03192 z m 6.94293,-2.59775 c 1.58951,-0.43417 3.17902,-0.86833 4.77213,-1.15537 l -2.02368,-2.45783 -1.5895,-2.02008 -0.57769,2.59776 -0.58126,3.03552 z m 7.36989,-1.59312 c 1.5931,-0.28704 3.18262,-0.43056 4.77572,-0.57767 l -1.58951,-2.74487 -1.44599,-2.31073 -0.86831,2.60135 -0.87191,3.03192 z m 47.72494,14.15854 -0.58127,-0.43416 -2.60135,-1.87657 -2.89199,-2.02008 -0.43415,-0.29063 -1.15537,-0.7212 -27.90801,48.0945 39.33243,-39.28579 -1.30247,-1.15536 -2.45782,-2.31071 z m -12.43985,-7.944 -0.43057,-0.1471 -3.18262,-1.29888 -3.32614,-1.15537 -0.29063,-0.14352 -2.31431,-0.57768 -14.46351,53.58426 27.76449,-48.09451 -0.7212,-0.43416 -3.03551,-1.73304 z m -28.63281,-5.48975 c -0.28704,0 -0.57767,0 -0.86831,0 l -3.17903,0.43416 -3.47325,0.43417 -0.43416,0 -3.32614,0.86471 -0.43415,0.14712 14.45992,53.58425 0,-55.46441 -2.74488,0 z m -14.60344,2.60136 -0.43416,0.14352 -3.17903,1.15536 -3.18262,1.29888 -0.43416,0.14353 -3.0355,1.58951 0,0 -1.15537,0.7212 27.76449,48.09451 -14.4635,-53.58426 -1.88015,0.43775 z m -13.16105,5.92031 -0.57768,0.43416 -2.74846,1.87657 -2.60494,1.87656 -0.72479,0.57767 -2.3143,2.1672 -1.73304,1.4424 39.33243,39.2858 -27.76449,-48.09451 -0.86473,0.43415 z m -11.42083,9.09935 -0.57768,0.57769 -2.02367,2.45783 -2.1672,2.45423 -0.58126,0.58127 -1.73304,2.74129 -1.73663,2.74488 48.1555,27.73219 -39.33602,-39.28938 z m -12.29273,18.1987 -0.14352,0.43416 -1.15895,3.17903 -1.15895,3.31897 -0.14352,0.43415 0,0.29064 53.79595,14.29846 -48.29902,-27.73221 -1.30248,2.74488 -1.58951,3.03192 z m -4.05094,14.00783 -0.14352,0.57768 -0.28704,3.31897 -0.29063,3.17902 c 0,0.29064 0,0.57769 0,1.01184 l 0,0.86473 55.6761,0 -53.79596,-14.4384 -0.43415,2.1636 0,0 -0.7248,3.32256 z m -0.57767,14.44558 c 0,0.28704 0.14711,0.43057 0.14711,0.7212 l 0.43056,3.31896 0.58128,3.32256 0,0.43416 0.57767,2.02007 53.79596,-14.29846 -55.6761,0 0.1471,1.15537 0,3.32614 z m 3.0391,14.43839 0.14352,0.43416 1.44599,3.17903 1.29888,3.03192 0.14711,0.43416 1.58952,2.74487 48.1555,-27.7322 -53.79595,14.29847 0.14352,0.28704 0.87191,3.32255 z m 109.32493,7.51343 0.14352,-0.43416 1.30248,-3.17904 1.44598,-3.17902 0.14352,-0.29064 1.01543,-3.31897 0.14352,-0.72119 -53.65242,-14.29847 48.1555,27.7322 1.30247,-2.31071 z m 4.91566,-13.72079 0.14352,-0.43415 0.58127,-3.31897 0.43415,-3.32255 c 0,-0.28705 0.14352,-0.57769 0.14352,-0.72479 l 0.14712,-3.31897 0,-1.58952 -55.6761,0 53.79595,14.29847 0.43057,-1.58952 z m 1.44958,-14.29846 c 0,-0.28705 0,-0.57769 0,-0.86831 l -0.29064,-3.17545 -0.29063,-3.46608 0,-0.58126 -0.72479,-3.17545 -0.57768,-2.60135 -53.79595,14.4384 55.6761,0 0,-0.5705 z m -2.02726,-14.73263 -0.14711,-0.43415 -1.15895,-3.17544 -1.15536,-3.32256 -0.14352,-0.29063 -1.44599,-3.03551 -1.59311,-3.17544 0,0 -48.1555,27.7322 53.79954,-14.29847 z m -9.54427,-19.49757 -0.43416,-0.57768 -2.02367,-2.45783 -2.17078,-2.45424 -0.57769,-0.57768 -0.29062,-0.29063 -39.33244,39.2822 48.1555,-27.73221 -1.44599,-2.31071 -1.88015,-2.88122 z"
       id="path31"
       inkscape:connector-curvature="0" />
  </g>
</svg>
