<?xml version="1.0" encoding="utf-8"?>
<svg version="1.1" xmlns="http://www.w3.org/2000/svg" x="0px" y="0px"
	 width="500px" height="450px" fill="#2C343E">
<path fill="#F15D4A" d="M255.598,234.919l1.742-16.129l-69.225-27.964l88.206,10.068l18.49,39.797L255.598,234.919z"/>
<path opacity="0.63"  fill="#403454" d="M230.039,239.817
	c0,0-199.266-82.888-193.504-107.435c3.969-16.911,106.089-2.51,106.089-2.51s-0.057-1.179,0.363-0.788c-56.339-10.547-111.177-15.889-117.225,1.014c-9.506,26.568,68.95,88.689,176.3,127.234C200.42,257.343,230.039,239.817,230.039,239.817z"/>
<path  fill="#BC587C" d="M229.432,269.661l-45.375-19.038l10.228-4.049l-23.402-11.498
	l13.286-0.336l-27.6-11.7l55.603,14.989l-7.056-8.121l34.812,9.777L229.432,269.661z"/>
<path  fill="#F15D4A" d="M278.765,299.979c0,0-34.657,20.819-41.312,24.606
	c0.312,0.232-77.999-47.516-77.999-47.516l73.132,20.693l8.508-15.479L278.765,299.979z"/>
<path  fill="#F15D4A" d="M395.739,285.518c0,0,13.935,13.207,16.524,26.733
	c0.938,0.693-12.49,13.019-30.19,15.413C382.304,327.351,395.739,285.518,395.739,285.518z"/>
<path  fill="#43BDA6" d="M226.312,275.107c0,0,107.706,60.289,157.071,52.281
	c0.707,1.007,12.975-41.206,12.975-41.206s-30.77-40.17-155.687-54.161C241.445,231.627,226.312,275.107,226.312,275.107z"/>
<path  fill="none" stroke="#F15E4A" stroke-miterlimit="10" d="M410.308,312.013l9.58,2.729
	"/>
<path opacity="0.2"  d="M228.574,268.581c0,0,115.862,71.645,176.946,48.716
	c2.463-0.642,5.337-3.312,5.337-3.312s-30.165,24.192-180.31-51.125C230.547,262.599,228.574,268.581,228.574,268.581z"/>
<path  fill="#68C7BD" d="M331.004,272.554c4.145,3.064,5.023,8.913,1.965,13.064
	s-8.896,5.032-13.041,1.969c-4.143-3.064-5.023-8.913-1.965-13.064S326.861,269.49,331.004,272.554z"/>
<path  fill="#68C7BD" d="M331.004,272.554c4.145,3.064,5.023,8.913,1.965,13.064
	s-8.896,5.032-13.041,1.969c-4.143-3.064-5.023-8.913-1.965-13.064S326.861,269.49,331.004,272.554z"/>
<path  fill="#68C7BD" d="M368.857,281.533c5.957,4.404,7.221,12.812,2.824,18.78
	c-4.396,5.967-12.789,7.233-18.746,2.829s-7.221-12.812-2.824-18.78C354.508,278.396,362.9,277.128,368.857,281.533z"/>
<path opacity="0.2"  d="M252.395,236.156
	c0.775,0.574,0.941,1.672,0.367,2.449c-0.572,0.778-1.668,0.943-2.445,0.369s-0.941-1.671-0.367-2.449
	C250.521,235.747,251.617,235.582,252.395,236.156z"/>
<path opacity="0.2"  d="M250.646,242.656
	c0.776,0.574,0.942,1.672,0.368,2.449c-0.573,0.778-1.668,0.943-2.445,0.369s-0.941-1.671-0.368-2.449
	S249.869,242.082,250.646,242.656z"/>
<path opacity="0.2"  d="M248.896,249.031
	c0.777,0.574,0.943,1.672,0.369,2.449c-0.574,0.778-1.668,0.943-2.445,0.369s-0.941-1.671-0.369-2.449
	C247.025,248.622,248.121,248.457,248.896,249.031z"/>
<path opacity="0.2"  d="M247.148,255.031
	c0.776,0.574,0.942,1.672,0.368,2.449c-0.573,0.778-1.668,0.943-2.445,0.369s-0.941-1.671-0.368-2.449
	S246.372,254.457,247.148,255.031z"/>
<path opacity="0.2"  d="M245.399,261.442
	c0.776,0.574,0.942,1.672,0.368,2.449c-0.573,0.778-1.668,0.943-2.445,0.369s-0.941-1.671-0.368-2.449
	S244.623,260.868,245.399,261.442z"/>
<path opacity="0.2"  d="M240.274,276.998
	c0.776,0.574,0.942,1.672,0.368,2.449c-0.573,0.778-1.668,0.943-2.445,0.369s-0.941-1.671-0.368-2.449
	S239.498,276.424,240.274,276.998z"/>
<line  fill="none" stroke="#FFFFFF" stroke-miterlimit="10" x1="248.607" y1="232.961" x2="233.846" y2="279.181"/>
<line  fill="none" stroke="#FFFFFF" stroke-miterlimit="10" x1="395.125" y1="282.5" x2="380.25" y2="327.664"/>
<line  fill="none" stroke="#F0493D" stroke-miterlimit="10" x1="256.385" y1="227.626" x2="289.477" y2="229.211"/>
<line  fill="none" stroke="#F0493D" stroke-miterlimit="10" x1="238.443" y1="287.105" x2="262.527" y2="309.713"/>
<path  fill="#5AC3B7" d="M331.004,272.551c-4.077-3.016-9.793-2.202-12.889,1.782
	c2.9-1.165,6.315-0.853,9.014,1.143c4.145,3.064,5.023,8.913,1.965,13.064c-0.048,0.065-0.103,0.123-0.152,0.187
	c1.553-0.624,2.961-1.664,4.027-3.111C336.027,281.464,335.148,275.615,331.004,272.551z"/>
<path  fill="#5AC3B7" d="M368.915,281.595c-5.988-4.373-14.199-3.088-18.746,2.689
	c4.259-1.689,9.092-1.341,13.056,1.551c6.087,4.444,7.377,12.925,2.885,18.943c-0.07,0.098-0.35,0.044-0.423,0.136
	c2.282-0.905,4.548-2.277,6.113-4.377C376.293,294.521,375.003,286.039,368.915,281.595z"/>
</svg>
